<?xml version="1.0" encoding="utf-8"?>
<!-- Generator: Adobe Illustrator 15.0.2, SVG Export Plug-In . SVG Version: 6.00 Build 0)  -->
<!DOCTYPE svg PUBLIC "-//W3C//DTD SVG 1.0//EN" "http://www.w3.org/TR/2001/REC-SVG-20010904/DTD/svg10.dtd">
<svg version="1.0" id="Layer_1" xmlns="http://www.w3.org/2000/svg" xmlns:xlink="http://www.w3.org/1999/xlink" x="0px" y="0px"
	 width="26px" height="26px" viewBox="180.059 134.344 26 26" enable-background="new 180.059 134.344 26 26" xml:space="preserve">
<g>
	<circle fill="#76EEC6" cx="193.059" cy="147.344" r="13"/>
	<path fill="#0000FF" d="M188.458,155.538c-0.132,0-0.218-0.017-0.268-0.028l1.115-1.761l-0.711-1.081l-1.321-0.17l-1.072,1.728
		c-0.175-0.302-0.529-1.306-0.383-1.89c0.194-0.834,0.713-1.26,1.616-1.339l0.44-0.04c0.688-0.064,1.164-0.165,1.418-0.467
		l0.032-0.039c0,0,0.01-0.016,0.013-0.019l5.621-6.697c0.571-0.685,0.787-1.3,0.636-1.832l-0.116-0.444
		c-0.199-0.765-0.014-1.334,0.578-1.795c0.409-0.322,1.138-0.516,1.604-0.516c0.131,0,0.218,0.017,0.268,0.029l-1.117,1.76
		l0.711,1.082l1.324,0.17l1.07-1.727c0.177,0.306,0.528,1.305,0.382,1.893c-0.198,0.829-0.712,1.255-1.616,1.335l-0.438,0.039
		c-0.644,0.059-1.128,0.157-1.393,0.438h-0.001l-0.004,0.005c-0.006,0.007-0.017,0.017-0.021,0.023l-0.013,0.02l-5.652,6.735
		c-0.576,0.686-0.788,1.301-0.636,1.833l0.11,0.443c0.202,0.764,0.02,1.333-0.573,1.8
		C189.652,155.345,188.924,155.538,188.458,155.538L188.458,155.538z"/>
</g>
</svg>
