<?xml version="1.0" encoding="utf-8"?>
<!-- Generator: Adobe Illustrator 15.0.2, SVG Export Plug-In . SVG Version: 6.00 Build 0)  -->
<!DOCTYPE svg PUBLIC "-//W3C//DTD SVG 1.0//EN" "http://www.w3.org/TR/2001/REC-SVG-20010904/DTD/svg10.dtd">
<svg version="1.0" id="Layer_1" xmlns="http://www.w3.org/2000/svg" xmlns:xlink="http://www.w3.org/1999/xlink" x="0px" y="0px"
	 width="380px" height="322px" viewBox="0 0 380 322" enable-background="new 0 0 380 322" xml:space="preserve">
<g>
	<path fill="#FFFFFF" d="M260.595,181.853l-17.958-62.963h-15.819l-17.812,63.154l-13.834-63.117H182.81l-23.794,64.818
		l-7.038-19.194l0.71-0.519c6.287-4.708,9.881-12.247,9.881-20.684c0-15.305-10.5-24.443-28.093-24.443l-40.094-0.017v68.387h14.729
		l-0.017-19.505h29.141l12.914,34.125h15.751l20.401-53.749l13.912,53.749h15.826l17.747-65.124l17.624,65.124h15.916l17.603-68.385
		h-14.829L260.595,181.853z M134.476,155.485h-25.381v-24.277h25.381c5.733,0,13.364,1.253,13.364,12.141
		C147.839,154.222,140.208,155.485,134.476,155.485z"/>
	<path fill="#FFFFFF" d="M80.146,66.075l0.248-0.009l1.406-1.543l-0.012-0.249l-3.341-3.049l-0.01-0.248l1.172-1.283l0.363-0.142
		l5.691,0.48l0.362-0.139l0.707-0.771l-0.014-0.247l-1.283-1.174l-3.715-0.321l-0.128-0.118c0.682-1.264,0.605-2.987-0.811-4.277
		c-1.8-1.643-3.873-1.179-5.516,0.62l-3.873,4.244l0.012,0.246L80.146,66.075z M76.808,55.013c0.706-0.77,1.433-1.05,2.331-0.228
		c0.902,0.823,0.69,1.571-0.018,2.343l-2.229,2.438l-0.246,0.016l-2.056-1.882l-0.013-0.244L76.808,55.013z"/>
	<polygon fill="#FFFFFF" points="89.513,56.4 95.551,50.857 95.559,50.61 94.38,49.327 94.133,49.316 89.896,53.208 89.649,53.197 
		87.763,51.142 87.774,50.895 91.758,47.242 91.768,46.994 90.587,45.709 90.34,45.699 86.362,49.354 86.116,49.343 84.462,47.542 
		84.473,47.295 88.712,43.408 88.723,43.161 87.544,41.876 87.298,41.864 81.26,47.407 81.252,47.654 89.266,56.388 	"/>
	<polygon fill="#FFFFFF" points="97.562,43.388 100.239,46.821 100.484,46.854 102.13,45.566 102.163,45.322 99.484,41.886 
		98.7,35.206 97.629,33.833 97.385,33.803 96.422,34.553 96.255,34.903 96.948,40.328 96.675,40.545 91.58,38.547 91.197,38.622 
		90.236,39.373 90.206,39.618 91.279,40.993 	"/>
	<polygon fill="#FFFFFF" points="107.411,41.613 109.171,40.474 109.222,40.236 104.867,33.5 105.015,33.402 113.322,37.584 
		113.711,37.541 115.76,36.215 115.812,35.972 109.376,26.014 109.132,25.963 107.376,27.102 107.325,27.341 111.681,34.079 
		111.532,34.173 103.225,29.994 102.839,30.036 100.788,31.361 100.737,31.603 107.173,41.558 	"/>
	<path fill="#FFFFFF" d="M119.301,34.186l3.398-1.768c3.862-2.013,4.208-4.745,2.438-8.145c-1.769-3.4-4.204-4.684-8.07-2.674
		l-3.396,1.773l-0.077,0.233l5.471,10.508L119.301,34.186z M116.798,24.099l1.391-0.722c2.165-1.128,3.5-0.449,4.787,2.024
		c1.286,2.47,1.076,3.954-1.084,5.082l-1.392,0.721l-0.24-0.071l-3.535-6.798L116.798,24.099z"/>
	<polygon fill="#FFFFFF" points="131.068,28.301 138.631,25.167 138.723,24.942 138.057,23.33 137.83,23.236 132.518,25.437 
		132.292,25.341 131.227,22.768 131.322,22.542 136.307,20.474 136.399,20.248 135.735,18.639 135.507,18.545 130.52,20.612 
		130.293,20.512 129.357,18.265 129.451,18.036 134.763,15.835 134.854,15.608 134.19,13.999 133.963,13.906 126.403,17.037 
		126.307,17.267 130.841,28.205 	"/>
	<path fill="#FFFFFF" d="M142.193,23.861l1.994-0.627l0.115-0.221l-1.365-4.316l0.112-0.222l1.662-0.525l0.382,0.062l4.688,3.27
		l0.385,0.061l0.995-0.316l0.115-0.217l-0.526-1.661l-3.052-2.143l-0.051-0.165c1.226-0.753,2.02-2.28,1.441-4.109
		c-0.736-2.323-2.763-2.965-5.088-2.228l-5.478,1.732l-0.115,0.216l3.568,11.296L142.193,23.861z M141.473,13.494l3.156-0.996
		c0.997-0.315,1.768-0.192,2.132,0.972c0.368,1.16-0.19,1.702-1.186,2.015l-3.156,0.999l-0.218-0.113l-0.838-2.658L141.473,13.494z"
		/>
	<path fill="#FFFFFF" d="M157.333,13.997c2.458-0.184,3.216,0.006,3.476,1.197c0.224,1.023-0.513,1.723-2.047,2.06
		c-2.042,0.447-2.873-0.084-3.136-1.278l-0.207-0.132l-2.044,0.453l-0.131,0.203c0.484,2.216,2.391,3.582,5.797,2.831
		c3.575-0.784,4.563-2.787,4.153-4.661c-0.526-2.383-2.625-2.993-5.081-2.81c-2.458,0.185-3.214-0.005-3.437-1.026
		c-0.152-0.682,0.247-1.305,1.779-1.643c1.873-0.411,2.497-0.014,2.719,1.008l0.208,0.134l2.042-0.449l0.136-0.207
		c-0.449-2.043-2.148-3.276-5.384-2.566c-3.236,0.711-4.262,2.544-3.888,4.246C152.814,13.741,154.873,14.183,157.333,13.997z"/>
	<polygon fill="#FFFFFF" points="175.098,16.379 175.285,16.533 177.543,16.32 177.696,16.131 180.557,5.713 180.389,3.978 
		180.2,3.819 178.64,3.97 178.484,4.16 176.168,12.951 175.998,12.966 172.07,4.771 171.877,4.611 170.32,4.762 170.159,4.953 
		170.323,6.685 	"/>
	<path fill="#FFFFFF" d="M182.985,15.847l1.569-0.021l0.171-0.178l0.839-2.28l0.347-0.178l4.356-0.064l0.352,0.17l0.902,2.249
		l0.179,0.175l1.568-0.023l0.171-0.177l-0.025-1.744l-4.16-10.044l-0.176-0.174l-2.266,0.035l-0.173,0.174l-3.854,10.169
		l0.024,1.741L182.985,15.847z M187.904,6.711l0.174-0.002l1.632,4.157l-0.172,0.176l-2.962,0.046l-0.177-0.173L187.904,6.711z"/>
	<polygon fill="#FFFFFF" points="198.367,15.954 198.554,15.796 199.157,7.798 199.333,7.814 203.42,16.16 203.752,16.36 
		206.186,16.546 206.375,16.387 207.269,4.567 207.104,4.381 205.021,4.223 204.836,4.385 204.229,12.378 204.059,12.363 
		199.971,4.017 199.635,3.815 197.201,3.63 197.015,3.791 196.12,15.608 196.28,15.796 	"/>
	<polygon fill="#FFFFFF" points="217.332,18.221 219.544,18.719 219.753,18.586 223.798,10.911 223.968,10.949 224.346,19.615 
		224.479,19.823 226.689,20.319 226.898,20.185 231.665,10.891 232.045,9.188 231.915,8.981 230.212,8.597 230.005,8.729 
		226.545,16.176 226.375,16.14 225.921,7.814 225.789,7.606 223.576,7.111 223.368,7.241 219.397,14.574 219.229,14.537 
		219.285,6.326 219.151,6.118 217.451,5.733 217.24,5.868 216.86,7.571 217.198,18.011 	"/>
	<polygon fill="#FFFFFF" points="234.467,22.669 234.684,22.554 238.239,11.243 238.124,11.025 236.132,10.397 235.912,10.511 
		232.358,21.823 232.468,22.042 	"/>
	<path fill="#FFFFFF" d="M243.153,25.953c2.596,1.012,4.889,0.41,6.101-1.735l-0.103-0.225l-1.944-0.761l-0.224,0.102
		c-0.771,1.004-1.775,1.177-3.071,0.671c-2.272-0.887-2.611-2.893-1.727-5.163c0.887-2.272,2.494-3.514,4.766-2.628
		c1.3,0.509,1.921,1.312,1.867,2.411l0.098,0.225l1.948,0.762l0.224-0.1c0.499-2.236-0.779-4.233-3.375-5.245
		c-3.571-1.396-6.469,0.282-7.798,3.686C238.585,21.364,239.581,24.558,243.153,25.953z"/>
	<polygon fill="#FFFFFF" points="250.854,28.977 252.722,29.915 252.955,29.837 255.15,25.479 255.385,25.401 259.588,27.515 
		259.669,27.75 257.474,32.11 257.55,32.346 259.422,33.283 259.653,33.208 264.981,22.613 264.904,22.382 263.036,21.44 
		262.799,21.519 260.765,25.568 260.527,25.647 256.326,23.528 256.248,23.295 258.286,19.248 258.208,19.011 256.338,18.072 
		256.104,18.152 250.774,28.74 	"/>
	<polygon fill="#FFFFFF" points="262.998,35.343 269.967,39.659 270.212,39.602 271.128,38.121 271.068,37.878 266.176,34.849 
		266.121,34.609 267.589,32.238 267.829,32.179 272.426,35.029 272.666,34.97 273.586,33.489 273.527,33.249 268.934,30.399 
		268.875,30.162 270.164,28.085 270.4,28.031 275.293,31.059 275.535,31.003 276.452,29.519 276.396,29.28 269.427,24.962 
		269.187,25.02 262.944,35.104 	"/>
	<polygon fill="#FFFFFF" points="273.053,41.846 279.426,46.408 279.67,46.366 280.684,44.95 280.642,44.706 276.251,41.565 
		276.211,41.319 281.892,33.389 281.849,33.147 280.151,31.932 279.907,31.97 273.014,41.601 	"/>
	<polygon fill="#FFFFFF" points="281.732,48.334 287.941,53.678 288.183,53.661 289.324,52.339 289.304,52.094 284.945,48.343 
		284.926,48.095 286.747,45.981 286.991,45.964 291.09,49.488 291.334,49.472 292.472,48.152 292.452,47.905 288.357,44.377 
		288.341,44.133 289.931,42.285 290.179,42.265 294.535,46.02 294.781,46.001 295.919,44.681 295.902,44.434 289.692,39.091 
		289.448,39.107 281.712,48.087 	"/>
	<polygon fill="#FFFFFF" points="290.729,56.251 292.187,57.75 292.434,57.754 298.176,52.167 298.297,52.295 295.831,61.249 
		295.946,61.62 297.648,63.368 297.895,63.373 306.384,55.116 306.388,54.872 304.932,53.374 304.688,53.369 298.941,58.952 
		298.82,58.829 301.287,49.875 301.167,49.504 299.47,47.754 299.222,47.75 290.732,56.003 	"/>
	<polygon fill="#FFFFFF" points="149.593,300.053 149.382,300.179 146.375,311.643 146.501,311.854 154.423,313.932 
		154.637,313.809 155.08,312.122 154.954,311.908 149.391,310.452 149.267,310.24 149.975,307.54 150.188,307.415 155.414,308.789 
		155.626,308.661 156.068,306.977 155.945,306.764 150.719,305.392 150.594,305.182 151.213,302.82 151.425,302.697 
		156.988,304.153 157.201,304.029 157.643,302.344 157.516,302.132 	"/>
	<path fill="#FFFFFF" d="M165.092,303.406c-3.263-0.563-4.906,0.746-5.202,2.463c-0.415,2.405,1.327,3.593,3.674,4.352
		c2.344,0.757,2.972,1.219,2.766,2.424c-0.178,1.028-1.128,1.397-2.673,1.13c-2.061-0.354-2.633-1.161-2.423-2.364l-0.142-0.202
		l-2.06-0.354l-0.202,0.143c-0.389,2.231,0.862,4.216,4.298,4.811c3.605,0.625,5.279-0.859,5.604-2.747
		c0.416-2.405-1.295-3.764-3.642-4.521c-2.347-0.76-2.974-1.22-2.795-2.253c0.12-0.684,0.721-1.112,2.27-0.845
		c1.888,0.324,2.316,0.93,2.135,1.96l0.146,0.2l2.06,0.358l0.202-0.143C169.465,305.753,168.357,303.97,165.092,303.406z"/>
	<polygon fill="#FFFFFF" points="172.182,304.74 171.993,304.896 171.836,306.634 171.995,306.822 175.466,307.134 175.621,307.325 
		174.746,317.035 174.903,317.225 176.985,317.413 177.175,317.255 178.051,307.543 178.238,307.386 181.706,307.698 
		181.897,307.537 182.052,305.806 181.895,305.616 	"/>
	<polygon fill="#FFFFFF" points="183.402,315.197 183.22,315.366 183.142,317.63 183.307,317.809 185.747,317.897 185.927,317.729 
		186.005,315.467 185.841,315.287 	"/>
	<path fill="#FFFFFF" d="M203.56,315.333l-5.218,0.309l-0.011-0.174l1.986-1.863c1.983-1.86,2.79-2.959,2.675-4.871
		c-0.115-1.911-1.61-3.567-4.219-3.413c-3.127,0.187-4.06,2.16-3.945,4.074l0.186,0.165l2.085-0.126l0.164-0.185
		c-0.062-1.041,0.244-1.76,1.634-1.842c1.046-0.062,1.606,0.604,1.674,1.646c0.062,1.045-0.245,1.76-2.231,3.622l-2.973,2.795
		l-0.154,0.358l0.114,1.912l0.184,0.165l8.174-0.489l0.162-0.184l-0.102-1.737L203.56,315.333z"/>
	<path fill="#FFFFFF" d="M209.957,304.219c-2.589,0.354-4.25,2.341-3.634,6.826c0.619,4.488,2.753,5.952,5.34,5.599
		c2.589-0.355,4.249-2.343,3.634-6.828C214.681,305.326,212.547,303.864,209.957,304.219z M211.38,314.573
		c-1.381,0.188-2.214-0.753-2.64-3.858c-0.426-3.107,0.12-4.236,1.501-4.424c1.382-0.19,2.214,0.752,2.638,3.854
		C213.308,313.251,212.761,314.382,211.38,314.573z"/>
	<polygon fill="#FFFFFF" points="221.543,302.314 219.494,302.74 219.188,302.98 217.293,305.865 217.646,307.574 217.85,307.708 
		218.705,307.532 219.787,305.884 219.959,305.849 221.761,314.555 221.965,314.693 224.018,314.269 224.153,314.062 221.75,302.45 
			"/>
	<path fill="#FFFFFF" d="M235.549,309.137l-5.041,1.392l-0.046-0.17l1.554-2.235c1.554-2.237,2.115-3.478,1.608-5.324
		c-0.511-1.853-2.317-3.158-4.84-2.465c-3.024,0.834-3.522,2.959-3.014,4.808l0.215,0.122l2.017-0.555l0.121-0.216
		c-0.278-1.007-0.127-1.772,1.215-2.143c1.012-0.278,1.7,0.257,1.979,1.263c0.275,1.009,0.128,1.773-1.428,4.012l-2.331,3.354
		l-0.074,0.384l0.508,1.848l0.216,0.124l7.898-2.179l0.121-0.215l-0.463-1.682L235.549,309.137z"/>
	<path fill="#FFFFFF" d="M375.859,83.725l-79.691,7.484c-23.521-35.956-62.949-57.354-106.008-57.354
		c-43.06,0-82.488,21.398-106.011,57.354L4.458,83.725l49.91,76.785L4.458,237.3l79.693-7.485
		c23.522,35.953,62.95,57.349,106.01,57.349c43.059,0,82.485-21.396,106.008-57.349l79.691,7.485l-49.911-76.79L375.859,83.725z
		 M286.694,92.098l-43.388,4.077c-4.197-8.839-8.954-16.737-13.845-23.688c14.818-2.64,26.475-5.912,30.968-7.25
		C270.42,72.625,279.296,81.65,286.694,92.098z M251.24,59.135c-6.513,1.711-16.216,4.004-27.383,5.823
		c-7.586-9.604-15.063-16.963-20.824-22.032C220.325,44.787,236.708,50.368,251.24,59.135z M194.326,46.499
		c4.955,4.133,12.213,10.792,19.838,19.853c-6.422,0.796-13.126,1.364-19.838,1.538V46.499z M194.326,76.223
		c8.889-0.214,17.691-1.079,25.879-2.251c4.985,6.689,9.901,14.38,14.241,23.033l-40.12,3.77V76.223z M166.152,66.354
		c7.628-9.062,14.887-15.724,19.844-19.856v21.395C179.282,67.717,172.578,67.151,166.152,66.354z M185.996,76.224v24.551
		l-40.123-3.77c4.339-8.654,9.256-16.343,14.24-23.03C168.3,75.147,177.105,76.012,185.996,76.224z M177.287,42.926
		c-5.762,5.069-13.242,12.428-20.828,22.034c-11.167-1.821-20.869-4.114-27.382-5.825C143.613,50.368,159.996,44.787,177.287,42.926
		z M119.89,65.235c4.491,1.337,16.143,4.613,30.964,7.251c-4.889,6.954-9.648,14.849-13.845,23.688l-43.385-4.077
		C101.023,81.65,109.9,72.623,119.89,65.235z M93.627,228.928l43.386-4.074c4.16,8.76,8.875,16.599,13.719,23.51
		c-14.967,2.669-26.682,5.981-31.027,7.282C109.793,248.283,100.978,239.31,93.627,228.928z M128.846,261.753
		c6.493-1.711,16.236-4.026,27.476-5.865c7.633,9.694,15.17,17.109,20.966,22.207C159.906,276.224,143.439,270.596,128.846,261.753z
		 M185.996,274.536c-4.988-4.151-12.317-10.874-20.009-20.045c6.477-0.807,13.238-1.382,20.009-1.554V274.536z M185.996,244.604
		c-8.94,0.214-17.796,1.086-26.025,2.268c-4.93-6.641-9.793-14.269-14.094-22.854l40.119-3.766V244.604z M214.312,254.495
		c-7.682,9.149-14.999,15.871-19.986,20.03v-21.586C201.089,253.113,207.843,253.688,214.312,254.495z M194.326,244.605v-24.353
		l40.115,3.767c-4.3,8.58-9.17,16.211-14.11,22.857C212.109,245.695,203.26,244.821,194.326,244.605z M203.034,278.094
		c5.794-5.096,13.327-12.511,20.958-22.2c11.24,1.841,20.981,4.156,27.467,5.862C236.872,270.598,220.411,276.224,203.034,278.094z
		 M260.605,255.651c-4.328-1.298-16.048-4.608-31.025-7.281c4.849-6.913,9.563-14.754,13.726-23.518l43.388,4.074
		C279.338,239.312,270.521,248.287,260.605,255.651z M359.49,227.397l-168.941-15.862l-0.389-0.038L20.827,227.398l43.475-66.889
		L20.827,93.627l168.945,15.866l0.388,0.036l169.329-15.903l-43.474,66.883L359.49,227.397z"/>
</g>
</svg>
