<?xml version="1.0" encoding="utf-8"?>
<!-- Generator: Adobe Illustrator 15.0.2, SVG Export Plug-In . SVG Version: 6.00 Build 0)  -->
<!DOCTYPE svg PUBLIC "-//W3C//DTD SVG 1.0//EN" "http://www.w3.org/TR/2001/REC-SVG-20010904/DTD/svg10.dtd">
<svg version="1.0" id="Layer_1" xmlns="http://www.w3.org/2000/svg" xmlns:xlink="http://www.w3.org/1999/xlink" x="0px" y="0px"
	 width="26px" height="26px" viewBox="180.059 134.344 26 26" enable-background="new 180.059 134.344 26 26" xml:space="preserve">
<g>
	<circle fill="#8CCFB9" cx="193.059" cy="147.344" r="13"/>
	<path fill="#3A53A4" d="M196.098,137.74c0.31,0.329,0.527,0.654,0.67,0.977c0.142,0.324,0.207,0.677,0.207,1.062
		c0,0.558-0.223,1.538-0.676,2.936c-0.455,1.396-1.189,3.375-2.211,5.93c0.385,0.894,0.67,1.81,0.854,2.746
		c0.184,0.938,0.32,1.409,0.402,1.409c0.027,0,0.049-0.001,0.062-0.007c0.015-0.006,0.025-0.01,0.033-0.018
		c0.235-0.125,0.459-0.219,0.668-0.275c0.211-0.059,0.416-0.09,0.617-0.09c0.578,0,1.062,0.214,1.448,0.643
		c0.388,0.432,0.578,0.971,0.578,1.627c0,0.67-0.204,1.217-0.614,1.635c-0.41,0.425-0.941,0.634-1.592,0.634
		c-0.684,0-1.206-0.265-1.574-0.8c-0.363-0.531-0.546-1.301-0.546-2.307v-0.85c0-0.928-0.1-1.604-0.303-2.021
		c-0.204-0.412-0.56-0.705-1.066-0.869c-0.505,0.159-0.858,0.448-1.062,0.869c-0.205,0.426-0.309,1.1-0.309,2.021v0.85
		c0,1.006-0.182,1.774-0.545,2.307c-0.363,0.535-0.883,0.8-1.568,0.8c-0.649,0-1.179-0.209-1.588-0.634
		c-0.411-0.418-0.617-0.965-0.617-1.635c0-0.656,0.19-1.195,0.582-1.627c0.385-0.429,0.867-0.643,1.445-0.643
		c0.205,0,0.409,0.031,0.617,0.09c0.209,0.059,0.434,0.15,0.668,0.275c0.017,0.008,0.029,0.012,0.045,0.018
		c0.012,0.006,0.026,0.007,0.043,0.007c0.087,0,0.227-0.473,0.412-1.409c0.182-0.938,0.467-1.854,0.85-2.746
		c-1.043-2.646-1.787-4.648-2.226-6.005c-0.442-1.356-0.659-2.308-0.659-2.859c0-0.377,0.066-0.731,0.208-1.062
		c0.142-0.331,0.362-0.658,0.669-0.977l3.035,8.146L196.098,137.74z M189.518,153.104c-0.416,0-0.766,0.149-1.05,0.445
		c-0.281,0.303-0.423,0.678-0.423,1.131c0,0.467,0.137,0.846,0.402,1.135c0.27,0.289,0.611,0.436,1.031,0.436
		c0.438,0,0.799-0.152,1.084-0.46c0.282-0.306,0.424-0.703,0.424-1.19c0-0.449-0.138-0.809-0.41-1.084
		C190.307,153.236,189.953,153.104,189.518,153.104z M196.59,153.104c-0.427,0-0.775,0.138-1.047,0.414
		c-0.271,0.28-0.406,0.639-0.406,1.082c0,0.471,0.141,0.866,0.428,1.18c0.287,0.31,0.644,0.471,1.066,0.471
		c0.424,0,0.771-0.146,1.041-0.436c0.268-0.289,0.4-0.668,0.4-1.136c0-0.452-0.141-0.827-0.42-1.13
		C197.37,153.253,197.016,153.104,196.59,153.104z"/>
</g>
</svg>
